# xmcd
#
# Track frame offsets: 
#        150
#        31411
#        53171
#        78079
#        100263
#        113450
#        139895
#        163706
#        200899
#        221918
#
# Disc length: 3350 seconds
#
# Revision: 0
# Processed by: cddbd v1.5.2PL0 Copyright (c) Steve Scherf et al.
# Submitted via: ExactAudioCopyFreeDBPlugin 1.0
#
DISCID=8a0d140a
DTITLE=Philip Bailey - Love Will Find A Way
DYEAR=1900
DGENRE=Soul
TTITLE0=Billy Jack
TTITLE1=You're Everything
TTITLE2=We're A Winner
TTITLE3=Stairway To The Stars
TTITLE4=Brooklyn Blues
TTITLE5=Once In A Lifetime
TTITLE6=Just To Keep You Satisfied
TTITLE7=Sacred Sounds
TTITLE8=Long As You're Living
TTITLE9=Love Will Find A Way
EXTD=
EXTT0=
EXTT1=
EXTT2=
EXTT3=
EXTT4=
EXTT5=
EXTT6=
EXTT7=
EXTT8=
EXTT9=
PLAYORDER=
